<?xml version="1.0" encoding="UTF-8"?>
<svg version="1.1" viewBox="0 0 516.19 514.17" xmlns="http://www.w3.org/2000/svg" xmlns:xlink="http://www.w3.org/1999/xlink">
 <defs>
  <radialGradient id="a" cx="354.56" cy="553.35" r="114.15" gradientUnits="userSpaceOnUse">
   <stop stop-color="#e2ff09" offset="0"/>
   <stop stop-color="#ffac09" offset="1"/>
  </radialGradient>
  <linearGradient id="e" x1="358.11" x2="358.06" y1="681.22" y2="972.14" gradientTransform="matrix(.57016 0 0 .45232 127.4 277.8)" gradientUnits="userSpaceOnUse">
   <stop stop-color="#fdb209" offset="0"/>
   <stop stop-color="#ecfd09" stop-opacity=".65254" offset="1"/>
  </linearGradient>
  <linearGradient id="d" x1="476.44" x2="783" y1="552.05" y2="552.05" gradientTransform="matrix(.45154 0 0 .57016 220.28 161.96)" gradientUnits="userSpaceOnUse">
   <stop stop-color="#fdb209" offset="0"/>
   <stop stop-color="#f9fd09" stop-opacity=".69492" offset="1"/>
  </linearGradient>
  <linearGradient id="c" x1="231.22" x2="-44.375" y1="554.66" y2="551.62" gradientTransform="matrix(.45911 0 0 .57016 119.2 161.96)" gradientUnits="userSpaceOnUse">
   <stop stop-color="#fdb209" offset="0"/>
   <stop stop-color="#f9fd09" stop-opacity=".59322" offset="1"/>
  </linearGradient>
  <linearGradient id="b" x1="359.62" x2="358.59" y1="423.62" y2="129.66" gradientTransform="matrix(.57016 0 0 .45209 127.4 176.62)" gradientUnits="userSpaceOnUse">
   <stop stop-color="#fdb209" offset="0"/>
   <stop stop-color="#f9fd09" stop-opacity=".66102" offset="1"/>
  </linearGradient>
 </defs>
 <g transform="translate(-70.711 -216.97)">
  <path d="m401.75 396.13 57.898-49.65-47.086 59.599" fill="#efd909"/>
  <path d="m395.86 563.45 60.928 49.65-49.55-59.599" fill="#efd909"/>
  <path d="m261.39 395.84-59.918-48.809 48.729 58.588" fill="#efd909"/>
  <path d="m266.27 564.83-61.938 48.809 50.372-58.588" fill="#efd909"/>
  <path d="m331.86 232.75-18.423 139.24c5.5038-1.1991 11.299-1.8366 17.283-1.8366 5.3039 0 10.459 0.50591 15.394 1.4552l1.8708-0.0282-16.125-138.83z" fill="url(#b)"/>
  <path d="m227.29 459.25-141.99 16.089 141.06 18.37c-0.92583-4.843-1.4204-9.8968-1.4204-15.091 0-6.7454 0.81916-13.249 2.353-19.368z" fill="url(#c)"/>
  <path d="m435.41 459.53c1.2894 5.6946 1.9896 11.707 1.9896 17.924 0 5.6812-0.58192 11.193-1.665 16.446l138.1-18.281-138.42-16.089z" fill="url(#d)"/>
  <path d="m347.68 582.85c-5.5832 1.2374-11.469 1.8941-17.55 1.8941-5.6995 0-11.231-0.57614-16.499-1.6679h-0.48107l18.423 139.36 16.107-139.58z" fill="url(#e)" opacity=".9127"/>
  <path d="m556.95 388.53-146.96 46.058c1.7216 3.1157 3.2608 6.332 4.6147 9.6571l142.34-55.715z" fill="#f2f800" fill-opacity=".7735"/>
  <path d="m409.01 246.17-46.254 147.28c3.4158 1.3088 6.7205 2.8141 9.9244 4.5078l36.33-151.79z" fill="#f2f800" fill-opacity=".7735"/>
  <path d="m413.59 515.37c-1.4802 3.356-3.1482 6.5992-5.0067 9.7284l149.61 46.878-144.61-56.606z" fill="#f2f800" fill-opacity=".7735"/>
  <path d="m103.28 388.62 142.34 55.715c1.3518-3.3299 2.8944-6.5546 4.6147-9.6749l-146.96-46.04z" fill="#f2f800" fill-opacity=".7735"/>
  <path d="m251.22 246.24 36.312 151.75c3.2002-1.695 6.5123-3.197 9.9244-4.5078l-46.236-147.24z" fill="#f2f800" fill-opacity=".7735"/>
  <path d="m246.71 515.44-144.68 56.624 149.7-46.914c-1.859-3.1246-3.543-6.3594-5.0246-9.7105z" fill="#f2f800" fill-opacity=".7735"/>
  <path d="m373.09 559.04c-3.2686 1.7493-6.6468 3.3032-10.138 4.6504l47.306 150.66-37.167-155.32z" fill="#f2f800" fill-opacity=".7735" opacity=".89286"/>
  <path d="m287.15 559.02-37.185 155.4 47.341-150.74c-3.4947-1.3492-6.8846-2.9161-10.156-4.6682z" fill="#f2f800" fill-opacity=".7735" opacity=".88889"/>
  <g transform="matrix(1.5588 0 0 1.5588 -183.07 -266.72)">
   <path transform="matrix(.57016 0 0 .57016 127.4 161.96)" d="m468.71 553.35c0 63.042-51.105 114.15-114.15 114.15s-114.15-51.105-114.15-114.15 51.105-114.15 114.15-114.15 114.15 51.105 114.15 114.15z" fill="url(#a)"/>
   <path d="m267.69 455.31-1.5 6.0625 10.188 12.062v6.3125c0 2.5084 2.0229 4.5312 4.5312 4.5312h36.219c2.5084 0 4.5312-2.0229 4.5312-4.5312v-6.75c2.3118-2.329 5.5208-3.75 9.0625-3.75 2.7748 0 5.3437 0.87118 7.4375 2.375v7.6562c0 2.5084 2.0229 4.5 4.5312 4.5h36.219c2.5084 0 4.5312-1.9916 4.5312-4.5v-7.25l9-10.656-1.5-6.0625-7.5 10.594v-5.0625c0-2.5084-2.0229-4.5312-4.5312-4.5312h-36.219c-0.0784 0-0.17262-4e-3 -0.25 0-2.3989 0.12081-4.2812 2.1013-4.2812 4.5312v5.5625c-2.1246-1.5759-4.7459-2.5-7.5938-2.5-3.4577 0-6.6058 1.393-8.9062 3.625v-6.2188c0-2.5084-2.0229-4.5312-4.5312-4.5312h-36.219c-2.5084 0-4.5312 2.0229-4.5312 4.5312v6.7812l-0.0937-0.65625-8.5938-12.125z" fill-opacity=".7735" opacity=".88889" stroke="#000" stroke-width=".45277"/>
   <path d="m299.19 509.7c3.1222 8.7309 17.968 13.216 34.431 10.082 14.819-2.8214 26.158-10.896 28.052-19.242-4.7092 6.5863-15.213 12.44-28.116 14.896-14.867 2.8305-28.443 0.27828-34.367-5.7361z" fill-opacity=".7735" opacity=".88889" stroke="#000" stroke-width="2"/>
   <path d="m364.4 492.22c-2.981-0.73621-5.9368 5.6e-4 -7.923 1.7128 1.738-0.50575 3.7312-0.55921 5.7146-0.0694 5.222 1.2896 8.5463 5.93 7.4572 10.34 0.58586-0.74662 1.0368-1.5913 1.2736-2.5503 1.0032-4.0622-1.9186-8.2957-6.5224-9.4327z" fill-opacity=".7735" opacity=".88889" stroke="#000"/>
   <path d="m289.86 504.61c-1.3196 2.7726-1.1911 5.8161 0.0876 8.1056-0.14661-1.8041 0.20111-3.7675 1.0791-5.6122 2.3116-4.8569 7.5247-7.182 11.626-5.2301-0.61383-0.7238-1.3508-1.3351-2.2427-1.7596-3.7781-1.7982-8.512 0.21446-10.55 4.4963z" fill-opacity=".7735" opacity=".88889" stroke="#000"/>
  </g>
 </g>
</svg>
